<?xml version="1.0" encoding="UTF-8" standalone="no"?>
<!-- Created with Inkscape (http://www.inkscape.org/) -->

<svg
   xmlns:dc="http://purl.org/dc/elements/1.1/"
   xmlns:cc="http://creativecommons.org/ns#"
   xmlns:rdf="http://www.w3.org/1999/02/22-rdf-syntax-ns#"
   xmlns:svg="http://www.w3.org/2000/svg"
   xmlns="http://www.w3.org/2000/svg"
   xmlns:sodipodi="http://sodipodi.sourceforge.net/DTD/sodipodi-0.dtd"
   xmlns:inkscape="http://www.inkscape.org/namespaces/inkscape"
   width="210mm"
   height="297mm"
   id="svg2879"
   version="1.1"
   inkscape:version="0.47 r22583"
   sodipodi:docname="Новый документ 2">
  <defs
     id="defs3">
    <inkscape:perspective
       sodipodi:type="inkscape:persp3d"
       inkscape:vp_x="0 : 526.18109 : 1"
       inkscape:vp_y="0 : 1000 : 0"
       inkscape:vp_z="744.09448 : 526.18109 : 1"
       inkscape:persp3d-origin="372.04724 : 350.78739 : 1"
       id="perspective2885" />
    <inkscape:perspective
       sodipodi:type="inkscape:persp3d"
       inkscape:vp_x="0 : 0.5 : 1"
       inkscape:vp_y="0 : 1000 : 0"
       inkscape:vp_z="1 : 0.5 : 1"
       inkscape:persp3d-origin="0.5 : 0.33333333 : 1"
       id="perspective11792-2" />
    <inkscape:perspective
       sodipodi:type="inkscape:persp3d"
       inkscape:vp_x="0 : 0.5 : 1"
       inkscape:vp_y="0 : 1000 : 0"
       inkscape:vp_z="1 : 0.5 : 1"
       inkscape:persp3d-origin="0.5 : 0.33333333 : 1"
       id="perspective11792-6" />
    <inkscape:perspective
       sodipodi:type="inkscape:persp3d"
       inkscape:vp_x="0 : 0.5 : 1"
       inkscape:vp_y="0 : 1000 : 0"
       inkscape:vp_z="1 : 0.5 : 1"
       inkscape:persp3d-origin="0.5 : 0.33333333 : 1"
       id="perspective11792" />
    <inkscape:perspective
       sodipodi:type="inkscape:persp3d"
       inkscape:vp_x="0 : 0.5 : 1"
       inkscape:vp_y="0 : 1000 : 0"
       inkscape:vp_z="1 : 0.5 : 1"
       inkscape:persp3d-origin="0.5 : 0.33333333 : 1"
       id="perspective11769" />
    <inkscape:perspective
       sodipodi:type="inkscape:persp3d"
       inkscape:vp_x="0 : 0.5 : 1"
       inkscape:vp_y="0 : 1000 : 0"
       inkscape:vp_z="1 : 0.5 : 1"
       inkscape:persp3d-origin="0.5 : 0.33333333 : 1"
       id="perspective10192-9" />
    <inkscape:perspective
       sodipodi:type="inkscape:persp3d"
       inkscape:vp_x="0 : 0.5 : 1"
       inkscape:vp_y="0 : 1000 : 0"
       inkscape:vp_z="1 : 0.5 : 1"
       inkscape:persp3d-origin="0.5 : 0.33333333 : 1"
       id="perspective10192-2" />
    <inkscape:perspective
       sodipodi:type="inkscape:persp3d"
       inkscape:vp_x="0 : 0.5 : 1"
       inkscape:vp_y="0 : 1000 : 0"
       inkscape:vp_z="1 : 0.5 : 1"
       inkscape:persp3d-origin="0.5 : 0.33333333 : 1"
       id="perspective10192" />
    <inkscape:perspective
       sodipodi:type="inkscape:persp3d"
       inkscape:vp_x="0 : 0.5 : 1"
       inkscape:vp_y="0 : 1000 : 0"
       inkscape:vp_z="1 : 0.5 : 1"
       inkscape:persp3d-origin="0.5 : 0.33333333 : 1"
       id="perspective9338-45" />
    <inkscape:perspective
       sodipodi:type="inkscape:persp3d"
       inkscape:vp_x="0 : 0.5 : 1"
       inkscape:vp_y="0 : 1000 : 0"
       inkscape:vp_z="1 : 0.5 : 1"
       inkscape:persp3d-origin="0.5 : 0.33333333 : 1"
       id="perspective9338-4" />
    <inkscape:perspective
       sodipodi:type="inkscape:persp3d"
       inkscape:vp_x="0 : 0.5 : 1"
       inkscape:vp_y="0 : 1000 : 0"
       inkscape:vp_z="1 : 0.5 : 1"
       inkscape:persp3d-origin="0.5 : 0.33333333 : 1"
       id="perspective9338" />
    <inkscape:perspective
       sodipodi:type="inkscape:persp3d"
       inkscape:vp_x="0 : 0.5 : 1"
       inkscape:vp_y="0 : 1000 : 0"
       inkscape:vp_z="1 : 0.5 : 1"
       inkscape:persp3d-origin="0.5 : 0.33333333 : 1"
       id="perspective9312" />
    <inkscape:perspective
       sodipodi:type="inkscape:persp3d"
       inkscape:vp_x="0 : 0.5 : 1"
       inkscape:vp_y="0 : 1000 : 0"
       inkscape:vp_z="1 : 0.5 : 1"
       inkscape:persp3d-origin="0.5 : 0.33333333 : 1"
       id="perspective9275" />
    <inkscape:perspective
       sodipodi:type="inkscape:persp3d"
       inkscape:vp_x="0 : 0.5 : 1"
       inkscape:vp_y="0 : 1000 : 0"
       inkscape:vp_z="1 : 0.5 : 1"
       inkscape:persp3d-origin="0.5 : 0.33333333 : 1"
       id="perspective2870" />
    <inkscape:perspective
       sodipodi:type="inkscape:persp3d"
       inkscape:vp_x="0 : 0.5 : 1"
       inkscape:vp_y="0 : 1000 : 0"
       inkscape:vp_z="1 : 0.5 : 1"
       inkscape:persp3d-origin="0.5 : 0.33333333 : 1"
       id="perspective2841" />
    <inkscape:perspective
       id="perspective10"
       inkscape:persp3d-origin="372.04724 : 350.78739 : 1"
       inkscape:vp_z="744.09448 : 526.18109 : 1"
       inkscape:vp_y="0 : 1000 : 0"
       inkscape:vp_x="0 : 526.18109 : 1"
       sodipodi:type="inkscape:persp3d" />
  </defs>
  <sodipodi:namedview
     inkscape:document-units="mm"
     id="base"
     pagecolor="#ffffff"
     bordercolor="#666666"
     borderopacity="1.0"
     inkscape:pageopacity="0.0"
     inkscape:pageshadow="2"
     inkscape:zoom="0.7"
     inkscape:cx="258.8274"
     inkscape:cy="579.84827"
     inkscape:current-layer="g11832"
     showgrid="false"
     inkscape:window-width="1680"
     inkscape:window-height="1001"
     inkscape:window-x="-4"
     inkscape:window-y="-4"
     inkscape:window-maximized="1" />
  <metadata
     id="metadata4">
    <rdf:RDF>
      <cc:Work
         rdf:about="">
        <dc:format>image/svg+xml</dc:format>
        <dc:type
           rdf:resource="http://purl.org/dc/dcmitype/StillImage" />
        <dc:title></dc:title>
      </cc:Work>
    </rdf:RDF>
  </metadata>
  <g
     inkscape:label="Layer 1"
     inkscape:groupmode="layer"
     id="layer1">
    <g
       style="display:inline"
       id="layer1-8"
       inkscape:label="Layer 1"
       transform="matrix(2.596907,0,0,2.596907,-215.75254,-166.68218)">
      <g
         id="g11832">
        <g
           id="g3727"
           transform="matrix(1.0447406,0,0,1.0447406,-11.860756,-8.6794639)">
          <path
             id="path10270"
             d="m 210.55581,170.80685 c -14.84912,-1.51228 -24.25122,-5.68828 -27.89964,-12.39178 -3.19588,-5.872 -1.72924,-16.15171 4.05999,-28.45653 l 1.40949,-2.99581 7.2424,0 c 6.87894,0 7.38014,-0.12251 9.98701,-2.4412 2.49162,-2.21619 2.69829,-2.78684 2.24218,-6.19133 -0.27633,-2.06258 -2.78875,-8.91206 -5.58317,-15.22106 -2.79442,-6.30898 -5.29553,-13.32177 -5.55802,-15.583971 -1.36089,-11.72809 8.66762,-16.484209 34.75769,-16.484209 13.72537,0 24.11454,1.57556 28.87814,4.37947 8.00485,4.71177 8.11537,11.092689 0.47903,27.65731 -2.75518,5.97653 -5.2759,12.65308 -5.60157,14.83679 -0.52168,3.49785 -0.32575,4.24585 1.64622,6.28499 2.07138,2.14192 2.82185,2.34624 10.05887,2.73863 l 7.82049,0.42403 2.17018,4.58612 c 5.15635,10.89674 6.31833,21.27123 3.02547,27.01229 -5.0742,8.84674 -20.8788,12.85289 -49.82409,12.62939 -6.91592,-0.0533 -15.60572,-0.4058 -19.31067,-0.78313 l 0,0 z"
             style="fill:#ff8000;fill-opacity:1;fill-rule:nonzero;stroke:none;display:inline" />
          <path
             id="path10270-8"
             d="m 210.34663,241.06038 c -14.84912,1.51228 -24.25122,5.68828 -27.89964,12.39178 -3.19588,5.872 -1.72924,16.15171 4.05999,28.45653 l 1.40949,2.99581 7.2424,0 c 6.87894,0 7.38014,0.12251 9.98701,2.4412 2.49162,2.21619 2.69829,2.78684 2.24218,6.19133 -0.27633,2.06258 -2.78875,8.91206 -5.58317,15.22106 -2.79442,6.30898 -5.29553,13.32177 -5.55802,15.58397 -1.36089,11.72809 8.66762,16.48421 34.75769,16.48421 13.72537,0 24.11454,-1.57556 28.87814,-4.37947 8.00485,-4.71177 8.11537,-11.09269 0.47903,-27.65731 -2.75518,-5.97653 -5.2759,-12.65308 -5.60157,-14.83679 -0.52168,-3.49785 -0.32575,-4.24585 1.64622,-6.28499 2.07138,-2.14192 2.82185,-2.34624 10.05887,-2.73863 l 7.82049,-0.42403 2.17018,-4.58612 c 5.15635,-10.89674 6.31833,-21.27123 3.02547,-27.01229 -5.0742,-8.84674 -20.8788,-12.85289 -49.82409,-12.62939 -6.91592,0.0533 -15.60572,0.4058 -19.31067,0.78313 l 0,0 z"
             style="fill:#ff8000;fill-opacity:1;fill-rule:nonzero;stroke:none;display:inline" />
          <path
             id="path10270-6"
             d="m 263.69817,188.42307 c 1.51228,-14.84912 5.68828,-24.25122 12.39178,-27.89964 5.872,-3.19588 16.15171,-1.72924 28.45653,4.05999 l 2.99581,1.40949 0,7.2424 c 0,6.87894 0.12251,7.38014 2.4412,9.98701 2.21619,2.49162 2.78684,2.69829 6.19133,2.24218 2.06258,-0.27633 8.91206,-2.78875 15.22106,-5.58317 6.30898,-2.79442 13.32177,-5.29553 15.58397,-5.55802 11.72809,-1.36089 16.48421,8.66762 16.48421,34.75769 0,13.72537 -1.57556,24.11454 -4.37947,28.87814 -4.71177,8.00485 -11.09269,8.11537 -27.65731,0.47903 -5.97653,-2.75518 -12.65308,-5.2759 -14.83679,-5.60157 -3.49785,-0.52168 -4.24585,-0.32575 -6.28499,1.64622 -2.14192,2.07138 -2.34624,2.82185 -2.73863,10.05887 l -0.42403,7.82049 -4.58612,2.17018 c -10.89674,5.15635 -21.27123,6.31833 -27.01229,3.02547 -8.84674,-5.0742 -12.85289,-20.8788 -12.62939,-49.82409 0.0533,-6.91592 0.4058,-15.60572 0.78313,-19.31067 l 0,0 z"
             style="fill:#ff8000;fill-opacity:1;fill-rule:nonzero;stroke:none;display:inline" />
          <path
             id="path10270-3"
             d="m 192.73044,229.15845 c -1.51228,14.84912 -5.68828,24.25122 -12.39178,27.89964 -5.872,3.19588 -16.15171,1.72924 -28.45653,-4.05999 l -2.99581,-1.40949 0,-7.2424 c 0,-6.87894 -0.12251,-7.38014 -2.4412,-9.98701 -2.21619,-2.49162 -2.78684,-2.69829 -6.19133,-2.24218 -2.06258,0.27633 -8.91206,2.78875 -15.22106,5.58317 -6.30898,2.79442 -13.32177,5.29553 -15.58397,5.55802 -11.728142,1.36089 -16.484262,-8.66762 -16.484262,-34.75769 0,-13.72537 1.57556,-24.11454 4.37947,-28.87814 4.711782,-8.00485 11.092732,-8.11537 27.657362,-0.47903 5.97653,2.75518 12.65308,5.2759 14.83679,5.60157 3.49785,0.52168 4.24585,0.32575 6.28499,-1.64622 2.14192,-2.07138 2.34624,-2.82185 2.73863,-10.05887 l 0.42403,-7.82049 4.58612,-2.17018 c 10.89674,-5.15635 21.27123,-6.31833 27.01229,-3.02547 8.84674,5.0742 12.85289,20.8788 12.62939,49.82409 -0.0533,6.91592 -0.4058,15.60572 -0.78313,19.31067 l 0,0 z"
             style="fill:#ff8000;fill-opacity:1;fill-rule:nonzero;stroke:none;display:inline" />
          <path
             sodipodi:nodetypes="cssssssssscccssssssssscccccsssssssscccssssssssccc"
             id="path10266"
             d="m 120,277.36218 c 0,-28.98779 1.59591,-34.01781 2.50757,-36.19973 2.70793,-6.48099 6.78529,-6.1756 26.73289,2.0022 12.46917,5.11192 17.51217,6.50656 23.61781,6.5315 9.41231,0.0384 14.8768,-5.14162 18.3309,-17.37681 1.11231,-3.94005 1.29862,-7.41818 1.29862,-24.24287 0,-16.8247 -0.18631,-20.30282 -1.29862,-24.24287 -4.62307,-16.37595 -13.90323,-21.07513 -30.41941,-15.40345 -2.58409,0.88738 -9.51976,3.5645 -15.41262,5.94915 -12.2271,4.94794 -17.19109,5.96046 -20.04713,4.08911 C 121.4702,175.95247 120,177.25547 120,137.36218 l 0,-39.999997 40,0 c 39.59746,0 39.57724,1.540763 41.37108,4.892577 1.88307,3.51857 0.64568,8.76696 -5.67837,24.08459 -5.36103,12.9851 -6.61647,17.41005 -6.67388,23.52283 -0.0379,4.03929 0.29199,5.61119 1.7171,8.18093 3.45105,6.22287 10.83265,9.92058 23.12095,11.58209 8.28427,1.12012 35.31682,0.37107 40.78597,-1.13014 16.03871,-4.40244 21.08439,-13.2727 16.28727,-28.63288 -0.61347,-1.96428 -3.30107,-9.03571 -5.97244,-15.71428 -5.26325,-13.15832 -6.34353,-17.72568 -4.97436,-21.03115 1.7784,-4.293454 1.77137,-5.754567 40.01668,-5.754567 l 35,0 0,39.999997 -0.35715,37.97522 -2.42865,2.16956 c -2.27473,2.03205 -2.6793,2.1401 -6.38312,1.70479 -2.3399,-0.275 -8.63918,-2.37998 -15.42848,-5.15559 -13.64485,-5.57829 -18.13117,-7.04911 -23.5767,-7.72948 -10.92083,-1.36447 -18.24849,4.63202 -21.54242,17.62896 -1.49995,5.91837 -2.20367,32.92624 -1.07704,41.33537 2.22041,16.57321 8.44192,24.44863 19.27982,24.40514 6.18327,-0.0248 11.12889,-1.38657 23.77627,-6.54674 15.78137,-6.43884 20.75486,-7.61284 24.27347,-5.72974 3.32825,1.78123 3.464,3.35963 3.464,40.27671 l 0,34.6658 -34.30866,0 c -37.18334,0 -37.86898,-0.0659 -40.369,-3.88144 -1.92815,-2.94272 -0.83574,-7.84837 5.02086,-22.54713 5.52592,-13.86883 6.3853,-16.58566 7.1616,-22.64041 1.48504,-11.58276 -6.66379,-19.22239 -23.15426,-21.7074 -8.07486,-1.21683 -37.79549,-0.45611 -43.24828,1.10697 -12.08856,3.46526 -17.13779,8.98041 -17.02683,18.59798 0.0705,6.10735 1.29715,10.44401 6.64277,23.48379 8.20202,20.00748 8.38517,24.10323 1.19958,26.82578 -1.32939,0.50369 -14.46055,0.76186 -38.75,0.76186 l -38.16778,0 0,-35 z"
             style="fill:#0000ff;fill-opacity:1;stroke:none" />
          <text
             id="text10276"
             y="222.36218"
             x="200"
             style="font-size:40px;font-style:normal;font-weight:normal;fill:#ffffff;fill-opacity:1;stroke:none;font-family:Bitstream Vera Sans"
             xml:space="preserve"><tspan
               y="222.36218"
               x="200"
               id="tspan10278"
               sodipodi:role="line">VR</tspan></text>
          <g
             transform="translate(-0.55010496,25.854934)"
             id="g3722">
            <rect
               style="fill:#ffffff;fill-opacity:1;stroke:#000000;stroke-opacity:1"
               id="rect2886"
               width="214.99997"
               height="40.000042"
               x="120"
               y="322.36218" />
            <text
               xml:space="preserve"
               style="font-size:32.97285843px;font-style:normal;font-weight:normal;fill:#000000;fill-opacity:1;stroke:none;font-family:Bitstream Vera Sans"
               x="131.29872"
               y="345.04309"
               id="text10293"
               transform="scale(0.97922842,1.0212122)"><tspan
                 sodipodi:role="line"
                 id="tspan10295"
                 x="131.29872"
                 y="345.04309"
                 style="font-style:normal;font-variant:normal;font-weight:normal;font-stretch:normal;font-family:Arial;-inkscape-font-specification:Arial">AmberSkyNet</tspan></text>
          </g>
        </g>
      </g>
    </g>
  </g>
</svg>
